Coordinates
nRows=4
nColumns=38

# SIMM Motion File Header:
name Coordinates
datacolumns 38
datarows 4
otherdata 1
range 0.68700000000000006000 0.69000000000000006000

Units are S.I. units (second, meters, Newtons, ...)
Angles are in degrees.

endheader
time	pelvis_tilt	pelvis_list	pelvis_rotation	pelvis_tx	pelvis_ty	pelvis_tz	hip_flexion_r	hip_adduction_r	hip_rotation_r	knee_angle_r	ankle_angle_r	subtalar_angle_r	mtp_angle_r	hip_flexion_l	hip_adduction_l	hip_rotation_l	knee_angle_l	ankle_angle_l	subtalar_angle_l	mtp_angle_l	lumbar_extension	lumbar_bending	lumbar_rotation	arm_flex_r	arm_add_r	arm_rot_r	elbow_flex_r	pro_sup_r	wrist_flex_r	wrist_dev_r	arm_flex_l	arm_add_l	arm_rot_l	elbow_flex_l	pro_sup_l	wrist_flex_l	wrist_dev_l
      0.68700000000000006000	     -4.96550577324887050000	      5.29890392550125000000	      0.97544542684884517000	      0.77342214997588565000	      1.01959844278290390000	     -0.31617693269085162000	    -13.99966414027360400000	     -4.64886898006064260000	    -14.88695330292278200000	    -69.26249992550104700000	    -19.03659935067235400000	      0.00000000000018363418	      0.00000000000006347774	     30.52791256891317700000	      6.65919932201986690000	     -4.11675125274489150000	    -13.38683173471379100000	    -12.96949639921148300000	      0.00000000000003414010	     -0.00000000000004087670	     -1.72253632168652620000	     -5.77643930036752630000	     10.92031937199948300000	    -10.05397118754518900000	    -19.64649611482257200000	     -3.12278951959162670000	     88.48594269527984600000	     80.71911076913460200000	      0.00000000000001928853	      0.00000000000003832085	    -41.20763975025075600000	    -43.98142944142971800000	     17.91512320862759100000	     90.85989571968018200000	     70.88783830829945000000	      0.00000000000003566448	     -0.00000000000000417446
      0.68800000000000006000	     -4.92772476794822370000	      5.25796005425774910000	      1.03166977780200500000	      0.77336393800985359000	      1.01916613177330780000	     -0.31617141195681969000	    -13.86082157527253000000	     -4.62877644768336700000	    -14.91906361038997300000	    -69.94250937489573500000	    -18.94942259234173000000	      0.00000000000018439977	      0.00000000000006381614	     30.34053106198205900000	      6.63047122884219050000	     -4.20529203159516830000	    -13.10736634279999400000	    -13.08828824486443500000	      0.00000000000003426446	     -0.00000000000004108428	     -1.76973118390296640000	     -5.77298914583801450000	     10.80982699813010400000	    -10.13180396208204000000	    -19.62185744558152600000	     -3.04039536388129730000	     88.24487552283227400000	     80.52954895754008600000	      0.00000000000001936515	      0.00000000000003846067	    -40.98185757443781800000	    -44.02242063993998000000	     18.01034007370052200000	     90.87142413694651600000	     70.86420988087495200000	      0.00000000000003585125	     -0.00000000000000417010
      0.68900000000000006000	     -4.89081339462871070000	      5.21768575525960010000	      1.08772299627569290000	      0.77330198402694228000	      1.01872264189456250000	     -0.31616776580737865000	    -13.71875260846139700000	     -4.61062634743166910000	    -14.95115206373759500000	    -70.62308738106827400000	    -18.86055280832944100000	      0.00000000000018516476	      0.00000000000006415601	     30.15977246790354700000	      6.60134594975961080000	     -4.30205507077600480000	    -12.84887786601452200000	    -13.20243823503094300000	      0.00000000000003439163	     -0.00000000000004129335	     -1.81597637769759770000	     -5.76993580560996120000	     10.69786309602383400000	    -10.20927823769988900000	    -19.59789049462684200000	     -2.95578503384433680000	     88.00007294668773700000	     80.33952227346986800000	      0.00000000000001944168	      0.00000000000003860224	    -40.75246177813792100000	    -44.06331585759094300000	     18.10830040647749700000	     90.88145914578963400000	     70.84279540603269300000	      0.00000000000003603758	     -0.00000000000000416596
      0.69000000000000006000	     -4.85465371441259650000	      5.17823653051308150000	      1.14360583886431840000	      0.77323640753597445000	      1.01826828889588030000	     -0.31616618040894046000	    -13.57361020890248700000	     -4.59463922469066070000	    -14.98334611690782100000	    -71.30416565206557800000	    -18.76995396265905200000	      0.00000000000018592778	      0.00000000000006449886	     29.98539018480998700000	      6.57206115612801160000	     -4.40669179187776280000	    -12.61114152891225100000	    -13.31184588414563500000	      0.00000000000003451944	     -0.00000000000004150265	     -1.86139727898255520000	     -5.76742777129365790000	     10.58439029318174500000	    -10.28627439856310700000	    -19.57455639467283200000	     -2.86890761199816110000	     87.75148400897033700000	     80.14924606078864100000	      0.00000000000001951782	      0.00000000000003874591	    -40.51951795279597200000	    -44.10404815015006400000	     18.20898568242363400000	     90.88999500701695000000	     70.82350301185287800000	      0.00000000000003622316	     -0.00000000000000416319
